<svg width="28" height="28" viewBox="0 0 28 28" fill="none" xmlns="http://www.w3.org/2000/svg">
<circle cx="14.0002" cy="14.0002" r="11.6667" stroke="#2F0D0C" stroke-width="1.75"/>
<path d="M18.551 15.604H15.1492C14.9914 15.604 14.8879 15.4389 14.9567 15.2969L16.9024 11.2809C17.0474 10.9816 17.3507 10.7915 17.6833 10.7915C18.1625 10.7915 18.551 11.18 18.551 11.6592V15.604ZM18.551 15.604H19.8878M18.551 15.604V17.2082" stroke="#2F0D0C" stroke-width="1.75" stroke-linecap="round" stroke-linejoin="round"/>
<path d="M12.3563 17.2082H8.41093C8.13218 17.2082 8.00599 16.8596 8.22014 16.6812L11.1642 14.2278L11.5732 13.8642C12.5843 12.9655 12.2443 11.3095 10.961 10.8817C10.5186 10.7343 10.0357 10.7686 9.61859 10.9771L9.57004 11.0014C9.24864 11.1621 8.97972 11.4111 8.79484 11.7193L8.72028 11.8436" stroke="#2F0D0C" stroke-width="1.75" stroke-linecap="round" stroke-linejoin="round"/>
</svg>
