<svg width="16" height="21" viewBox="0 0 16 21" fill="none" xmlns="http://www.w3.org/2000/svg">
<path fill-rule="evenodd" clip-rule="evenodd" d="M8 0.75C5.37665 0.75 3.25 2.87665 3.25 5.5C3.25 8.12335 5.37665 10.25 8 10.25C10.6234 10.25 12.75 8.12335 12.75 5.5C12.75 2.87665 10.6234 0.75 8 0.75ZM4.75 5.5C4.75 3.70507 6.20507 2.25 8 2.25C9.79493 2.25 11.25 3.70507 11.25 5.5C11.25 7.29493 9.79493 8.75 8 8.75C6.20507 8.75 4.75 7.29493 4.75 5.5Z" fill="#606060"/>
<path fill-rule="evenodd" clip-rule="evenodd" d="M4.71585 11.75C3.38709 11.75 2.15754 12.4532 1.48374 13.5984L0.82197 14.7233C0.299652 15.611 0.0755979 16.6478 0.289504 17.5798C0.512757 18.5525 1.2044 19.3451 2.33631 19.6375C5.49748 20.4542 10.5028 20.4542 13.664 19.6375C14.7959 19.3451 15.4876 18.5525 15.7108 17.5798C15.9247 16.6478 15.7007 15.611 15.1784 14.7233L14.5166 13.5984C13.8428 12.4532 12.6132 11.75 11.2845 11.75H4.71585ZM2.77659 14.3591C3.18086 13.6719 3.91859 13.25 4.71585 13.25H11.2845C12.0817 13.25 12.8195 13.6719 13.2237 14.3591L13.8855 15.4839C14.2575 16.1161 14.3594 16.7626 14.2488 17.2443C14.1476 17.6852 13.8644 18.0365 13.2888 18.1852C10.3737 18.9383 5.62658 18.9383 2.7115 18.1852C2.13593 18.0365 1.85269 17.6852 1.75149 17.2443C1.64094 16.7626 1.74287 16.1161 2.11481 15.4839L2.77659 14.3591Z" fill="#606060"/>
</svg>
