<svg width="24" height="25" viewBox="0 0 24 25" fill="none" xmlns="http://www.w3.org/2000/svg">
<path fill-rule="evenodd" clip-rule="evenodd" d="M4.31743 6.88165C4.62419 4.79571 6.41384 3.25 8.52221 3.25H15.4763C17.5847 3.25 19.3744 4.79571 19.6811 6.88165L21.1517 16.8817C21.529 19.4474 19.5403 21.75 16.9469 21.75H7.05162C4.45824 21.75 2.46952 19.4474 2.84685 16.8816L4.31743 6.88165ZM9.74902 7.5C9.74902 7.08579 9.41324 6.75 8.99902 6.75C8.58481 6.75 8.24902 7.08579 8.24902 7.5C8.24902 9.57107 9.92796 11.25 11.999 11.25C14.0701 11.25 15.749 9.57107 15.749 7.5C15.749 7.08579 15.4132 6.75 14.999 6.75C14.5848 6.75 14.249 7.08579 14.249 7.5C14.249 8.74264 13.2417 9.75 11.999 9.75C10.7564 9.75 9.74902 8.74264 9.74902 7.5Z" fill="#CC312D"/>
</svg>
