<svg width="19" height="20" viewBox="0 0 19 20" fill="none" xmlns="http://www.w3.org/2000/svg">
<path fill-rule="evenodd" clip-rule="evenodd" d="M9.4248 0.75C9.83902 0.75 10.1748 1.08579 10.1748 1.5V1.94339C10.1748 2.3576 9.83902 2.69339 9.4248 2.69339C9.01059 2.69339 8.6748 2.3576 8.6748 1.94339V1.5C8.6748 1.08579 9.01059 0.75 9.4248 0.75ZM3.99763 3.43709C3.70475 3.14419 3.22987 3.14418 2.93697 3.43706C2.64407 3.72995 2.64405 4.20482 2.93694 4.49772L3.25046 4.81126C3.54335 5.10417 4.01822 5.10418 4.31112 4.8113C4.60402 4.51841 4.60404 4.04354 4.31115 3.75064L3.99763 3.43709ZM15.9122 4.49786C16.2051 4.20497 16.2051 3.73009 15.9122 3.4372C15.6193 3.14431 15.1444 3.14431 14.8516 3.4372L14.538 3.75072C14.2451 4.04362 14.2451 4.51849 14.538 4.81138C14.8309 5.10428 15.3058 5.10428 15.5987 4.81138L15.9122 4.49786ZM0.25 9.92442C0.250013 9.5102 0.585809 9.17443 1.00002 9.17444L1.44343 9.17445C1.85764 9.17447 2.19342 9.51026 2.1934 9.92447C2.19339 10.3387 1.85759 10.6745 1.44338 10.6745L0.999977 10.6744C0.585764 10.6744 0.249987 10.3386 0.25 9.92442ZM17.4053 9.17444C16.9911 9.17444 16.6553 9.51023 16.6553 9.92444C16.6553 10.3387 16.9911 10.6744 17.4053 10.6744H17.8487C18.2629 10.6744 18.5987 10.3387 18.5987 9.92444C18.5987 9.51023 18.2629 9.17444 17.8487 9.17444H17.4053ZM4.854 9.92443C4.854 7.40012 6.90036 5.35376 9.42467 5.35376C11.949 5.35376 13.9953 7.40012 13.9953 9.92443C13.9953 10.284 13.9539 10.633 13.876 10.9673C13.7819 11.3707 14.0327 11.774 14.4361 11.868C14.8394 11.9621 15.2427 11.7114 15.3368 11.308C15.4406 10.8628 15.4953 10.3995 15.4953 9.92443C15.4953 6.57169 12.7774 3.85376 9.42467 3.85376C6.07193 3.85376 3.354 6.57169 3.354 9.92443C3.354 11.2308 3.76753 12.4429 4.47075 13.434C4.71044 13.7718 5.17861 13.8513 5.51642 13.6116C5.85424 13.3719 5.93377 12.9037 5.69407 12.5659C5.16492 11.8202 4.854 10.9097 4.854 9.92443ZM14.6588 13.6452C14.7092 13.6643 14.7521 13.6806 14.787 13.6929L14.818 13.7038L14.848 13.7173C15.5984 14.0571 16.1851 14.1729 16.6276 14.1412C17.0439 14.1114 17.364 13.9506 17.6278 13.6452C17.8984 13.3316 18.3721 13.2969 18.6856 13.5676C18.9991 13.8383 19.0339 14.3119 18.7632 14.6254C18.2338 15.2385 17.541 15.5796 16.7348 15.6374C15.9636 15.6926 15.1287 15.4871 14.2591 15.0972C14.2208 15.0836 14.181 15.0691 14.1397 15.0541L14.1395 15.054C13.5034 14.8229 12.5181 14.465 11.5026 15.1359C10.2661 15.9527 8.75817 15.7573 7.85055 15.2872C7.48274 15.0967 7.33899 14.6441 7.52949 14.2763C7.71998 13.9085 8.17257 13.7648 8.54038 13.9553C9.09539 14.2427 10.0033 14.3286 10.6758 13.8843C12.3591 12.7723 14.0514 13.4147 14.6588 13.6452ZM13.3762 17.1287C12.7987 16.8772 11.2355 16.2709 9.58888 17.264C9.0915 17.564 8.3877 17.6038 7.82339 17.334C7.44968 17.1554 7.00191 17.3135 6.82327 17.6872C6.64462 18.0609 6.80276 18.5087 7.17647 18.6873C8.18745 19.1706 9.42598 19.114 10.3636 18.5485C11.344 17.9572 12.2843 18.2893 12.7772 18.504C13.8224 18.9592 14.6493 19.0856 15.3371 18.9603C16.0408 18.8321 16.4812 18.4602 16.7664 18.1893C17.0667 17.9041 17.079 17.4294 16.7938 17.129C16.5086 16.8287 16.0338 16.8164 15.7335 17.1016C15.5247 17.2999 15.3446 17.4342 15.0682 17.4846C14.776 17.5378 14.2633 17.5151 13.3762 17.1287Z" fill="#F58220"/>
</svg>
