<svg width="20" height="20" viewBox="0 0 20 20" fill="none" xmlns="http://www.w3.org/2000/svg">
<path d="M4.72721 8.26132L7.27899 4.80879C8.92846 2.57708 9.75319 1.46122 10.5227 1.69703C11.2921 1.93283 11.2921 3.30142 11.2921 6.03861V6.2967C11.2921 7.28394 11.2921 7.77757 11.6076 8.08719L11.6243 8.10323C11.9465 8.40632 12.4603 8.40632 13.4878 8.40632C15.3369 8.40632 16.2614 8.40632 16.5739 8.9671C16.579 8.97639 16.5841 8.98575 16.5889 8.99518C16.8839 9.56465 16.3486 10.2889 15.278 11.7374L12.7262 15.1899C11.0767 17.4216 10.2519 18.5375 9.48247 18.3017C8.713 18.0659 8.71302 16.6972 8.71306 13.96L8.71307 13.7021C8.71308 12.7148 8.71309 12.2212 8.39764 11.9115L8.38095 11.8955C8.05869 11.5924 7.54493 11.5924 6.5174 11.5924C4.66834 11.5924 3.74381 11.5924 3.43135 11.0316C3.42618 11.0223 3.42115 11.013 3.41627 11.0036C3.12131 10.4341 3.65661 9.70983 4.72721 8.26132Z" stroke="#CC312D" stroke-width="1.25"/>
</svg>
