<svg width="24" height="24" viewBox="0 0 24 24" fill="none" xmlns="http://www.w3.org/2000/svg">
<path d="M9.23047 7.2501C10.7097 6.16468 13.2906 6.16468 14.7698 7.2501" stroke="white" stroke-width="1.5" stroke-linecap="round" stroke-linejoin="round"/>
<path d="M6.5 4.79941C9.45148 2.4002 14.5485 2.4002 17.5 4.79941" stroke="white" stroke-width="1.5" stroke-linecap="round" stroke-linejoin="round"/>
<path d="M5.12475 20.9433C6.7324 20.8036 7.49769 20.2452 7.07752 18.8133C6.65034 17.3812 6.40121 16.3402 8.35701 15.6051C10.8856 14.6586 13.1103 14.6567 15.643 15.6051C17.5983 16.3372 17.3437 17.38 16.9254 18.8133C16.507 20.2466 17.266 20.8072 18.8758 20.9433C21.7411 21.1856 22.0323 20.0306 21.9975 19.1706C21.7834 15.2323 18.5735 10.75 11.9547 10.75C5.42945 10.75 2.21226 15.2323 2.00218 19.1658C1.96993 20.0306 2.26307 21.1856 5.12475 20.9433Z" stroke="white" stroke-width="1.5" stroke-linejoin="round"/>
</svg>
