<svg width="25" height="24" viewBox="0 0 25 24" fill="none" xmlns="http://www.w3.org/2000/svg">
<path d="M9.73047 7.2501C11.2097 6.16468 13.7906 6.16468 15.2698 7.2501" stroke="#CC312D" stroke-width="1.5" stroke-linecap="round" stroke-linejoin="round"/>
<path d="M7 4.79941C9.95148 2.4002 15.0485 2.4002 18 4.79941" stroke="#CC312D" stroke-width="1.5" stroke-linecap="round" stroke-linejoin="round"/>
<path d="M5.62475 20.9433C7.2324 20.8036 7.99769 20.2452 7.57752 18.8133C7.15034 17.3812 6.90121 16.3402 8.85701 15.6051C11.3856 14.6586 13.6103 14.6567 16.143 15.6051C18.0983 16.3372 17.8437 17.38 17.4254 18.8133C17.007 20.2466 17.766 20.8072 19.3758 20.9433C22.2411 21.1856 22.5323 20.0306 22.4975 19.1706C22.2834 15.2323 19.0735 10.75 12.4547 10.75C5.92945 10.75 2.71226 15.2323 2.50218 19.1658C2.46993 20.0306 2.76307 21.1856 5.62475 20.9433Z" stroke="#CC312D" stroke-width="1.5" stroke-linejoin="round"/>
</svg>
