<svg width="20" height="20" viewBox="0 0 20 20" fill="none" xmlns="http://www.w3.org/2000/svg">
<path d="M7.74927 5C7.74927 4.58579 7.41349 4.25 6.99927 4.25C6.58506 4.25 6.24927 4.58579 6.24927 5C6.24927 7.07107 7.92821 8.75 9.99927 8.75C12.0703 8.75 13.7493 7.07107 13.7493 5C13.7493 4.58579 13.4135 4.25 12.9993 4.25C12.5851 4.25 12.2493 4.58579 12.2493 5C12.2493 6.24264 11.2419 7.25 9.99927 7.25C8.75663 7.25 7.74927 6.24264 7.74927 5Z" fill="#2F0D0C"/>
<path fill-rule="evenodd" clip-rule="evenodd" d="M6.52221 0.75C4.41384 0.75 2.62419 2.29571 2.31743 4.38165L0.846846 14.3816C0.469525 16.9474 2.45824 19.25 5.05162 19.25H14.9469C17.5403 19.25 19.529 16.9474 19.1517 14.3817L17.6811 4.38165C17.3744 2.29571 15.5847 0.75 13.4763 0.75H6.52221ZM3.80147 4.59989C3.99996 3.25017 5.15797 2.25 6.52221 2.25H13.4763C14.8406 2.25 15.9986 3.25017 16.1971 4.59989L17.6677 14.5999C17.9118 16.2601 16.625 17.75 14.9469 17.75H5.05162C3.37355 17.75 2.08674 16.2601 2.33089 14.5999L3.80147 4.59989Z" fill="#2F0D0C"/>
</svg>
