<svg width="24" height="25" viewBox="0 0 24 25" fill="none" xmlns="http://www.w3.org/2000/svg">
<path d="M9.74927 7.5C9.74927 7.08579 9.41349 6.75 8.99927 6.75C8.58506 6.75 8.24927 7.08579 8.24927 7.5C8.24927 9.57107 9.92821 11.25 11.9993 11.25C14.0703 11.25 15.7493 9.57107 15.7493 7.5C15.7493 7.08579 15.4135 6.75 14.9993 6.75C14.5851 6.75 14.2493 7.08579 14.2493 7.5C14.2493 8.74264 13.2419 9.75 11.9993 9.75C10.7566 9.75 9.74927 8.74264 9.74927 7.5Z" fill="white"/>
<path fill-rule="evenodd" clip-rule="evenodd" d="M8.52221 3.25C6.41384 3.25 4.62419 4.79571 4.31743 6.88165L2.84685 16.8816C2.46952 19.4474 4.45824 21.75 7.05162 21.75H16.9469C19.5403 21.75 21.529 19.4474 21.1517 16.8817L19.6811 6.88165C19.3744 4.79571 17.5847 3.25 15.4763 3.25H8.52221ZM5.80147 7.09989C5.99996 5.75017 7.15797 4.75 8.52221 4.75H15.4763C16.8406 4.75 17.9986 5.75017 18.1971 7.09989L19.6677 17.0999C19.9118 18.7601 18.625 20.25 16.9469 20.25H7.05162C5.37355 20.25 4.08674 18.7601 4.33089 17.0999L5.80147 7.09989Z" fill="white"/>
</svg>
