<svg width="20" height="19" viewBox="0 0 20 19" fill="none" xmlns="http://www.w3.org/2000/svg">
<path d="M7.74927 4.5C7.74927 4.08579 7.41349 3.75 6.99927 3.75C6.58506 3.75 6.24927 4.08579 6.24927 4.5C6.24927 6.57107 7.92821 8.25 9.99927 8.25C12.0703 8.25 13.7493 6.57107 13.7493 4.5C13.7493 4.08579 13.4135 3.75 12.9993 3.75C12.5851 3.75 12.2493 4.08579 12.2493 4.5C12.2493 5.74264 11.2419 6.75 9.99927 6.75C8.75663 6.75 7.74927 5.74264 7.74927 4.5Z" fill="#606060"/>
<path fill-rule="evenodd" clip-rule="evenodd" d="M6.52221 0.25C4.41384 0.25 2.62419 1.79571 2.31743 3.88165L0.846846 13.8816C0.469525 16.4474 2.45824 18.75 5.05162 18.75H14.9469C17.5403 18.75 19.529 16.4474 19.1517 13.8817L17.6811 3.88165C17.3744 1.79571 15.5847 0.25 13.4763 0.25H6.52221ZM3.80147 4.09989C3.99996 2.75017 5.15797 1.75 6.52221 1.75H13.4763C14.8406 1.75 15.9986 2.75017 16.1971 4.09989L17.6677 14.0999C17.9118 15.7601 16.625 17.25 14.9469 17.25H5.05162C3.37355 17.25 2.08674 15.7601 2.33089 14.0999L3.80147 4.09989Z" fill="#606060"/>
</svg>
