<svg width="22" height="21" viewBox="0 0 22 21" fill="none" xmlns="http://www.w3.org/2000/svg">
<path fill-rule="evenodd" clip-rule="evenodd" d="M5.5 0.25C2.87665 0.25 0.75 2.37665 0.75 5C0.75 7.62335 2.87665 9.75 5.5 9.75C8.12335 9.75 10.25 7.62335 10.25 5C10.25 2.37665 8.12335 0.25 5.5 0.25ZM2.25 5C2.25 3.20507 3.70507 1.75 5.5 1.75C7.29493 1.75 8.75 3.20507 8.75 5C8.75 6.79493 7.29493 8.25 5.5 8.25C3.70507 8.25 2.25 6.79493 2.25 5Z" fill="#606060"/>
<path fill-rule="evenodd" clip-rule="evenodd" d="M5.5 11.25C2.87665 11.25 0.75 13.3766 0.75 16C0.75 18.6234 2.87665 20.75 5.5 20.75C8.12335 20.75 10.25 18.6234 10.25 16C10.25 13.3766 8.12335 11.25 5.5 11.25ZM2.25 16C2.25 14.2051 3.70507 12.75 5.5 12.75C7.29493 12.75 8.75 14.2051 8.75 16C8.75 17.7949 7.29493 19.25 5.5 19.25C3.70507 19.25 2.25 17.7949 2.25 16Z" fill="#606060"/>
<path fill-rule="evenodd" clip-rule="evenodd" d="M11.75 5C11.75 2.37665 13.8766 0.25 16.5 0.25C19.1234 0.25 21.25 2.37665 21.25 5C21.25 7.62335 19.1234 9.75 16.5 9.75C13.8766 9.75 11.75 7.62335 11.75 5ZM16.5 1.75C14.7051 1.75 13.25 3.20507 13.25 5C13.25 6.79493 14.7051 8.25 16.5 8.25C18.2949 8.25 19.75 6.79493 19.75 5C19.75 3.20507 18.2949 1.75 16.5 1.75Z" fill="#606060"/>
<path fill-rule="evenodd" clip-rule="evenodd" d="M16.5 11.25C13.8766 11.25 11.75 13.3766 11.75 16C11.75 18.6234 13.8766 20.75 16.5 20.75C19.1234 20.75 21.25 18.6234 21.25 16C21.25 13.3766 19.1234 11.25 16.5 11.25ZM13.25 16C13.25 14.2051 14.7051 12.75 16.5 12.75C18.2949 12.75 19.75 14.2051 19.75 16C19.75 17.7949 18.2949 19.25 16.5 19.25C14.7051 19.25 13.25 17.7949 13.25 16Z" fill="#606060"/>
</svg>
