<svg width="24" height="24" viewBox="0 0 24 24" fill="none" xmlns="http://www.w3.org/2000/svg">
<path opacity="0.25" d="M14 15.5C14 14.5335 14.7835 13.75 15.75 13.75H19.25C20.2165 13.75 21 14.5335 21 15.5V19C21 19.9665 20.2165 20.75 19.25 20.75H17C15.3431 20.75 14 19.4069 14 17.75V15.5Z" fill="#CC312D"/>
<path opacity="0.25" d="M3 4.5C3 3.5335 3.7835 2.75 4.75 2.75H8.25C9.2165 2.75 10 3.5335 10 4.5V8C10 8.9665 9.2165 9.75 8.25 9.75H6C4.34315 9.75 3 8.40685 3 6.75V4.5Z" fill="#CC312D"/>
<path d="M14 15.5C14 14.5335 14.7835 13.75 15.75 13.75H19.25C20.2165 13.75 21 14.5335 21 15.5V19C21 19.9665 20.2165 20.75 19.25 20.75H17C15.3431 20.75 14 19.4069 14 17.75V15.5Z" stroke="#CC312D" stroke-width="1.5" stroke-linejoin="round"/>
<path d="M3 4.5C3 3.5335 3.7835 2.75 4.75 2.75H8.25C9.2165 2.75 10 3.5335 10 4.5V8C10 8.9665 9.2165 9.75 8.25 9.75H6C4.34315 9.75 3 8.40685 3 6.75V4.5Z" stroke="#CC312D" stroke-width="1.5" stroke-linejoin="round"/>
<path d="M10.5 17.25C10.5 19.3211 8.82107 21 6.75 21C4.67893 21 3 19.3211 3 17.25C3 15.1789 4.67893 13.5 6.75 13.5C8.82107 13.5 10.5 15.1789 10.5 17.25Z" stroke="#CC312D" stroke-width="1.5"/>
<path d="M21 6.25C21 8.32107 19.3211 10 17.25 10C15.1789 10 13.5 8.32107 13.5 6.25C13.5 4.17893 15.1789 2.5 17.25 2.5C19.3211 2.5 21 4.17893 21 6.25Z" stroke="#CC312D" stroke-width="1.5"/>
</svg>
