<svg width="24" height="24" viewBox="0 0 24 24" fill="none" xmlns="http://www.w3.org/2000/svg">
<path fill-rule="evenodd" clip-rule="evenodd" d="M2.07422 12C2.07422 6.75329 6.32751 2.5 11.5742 2.5C14.5507 2.5 17.2075 3.8689 18.9494 6.01148L12.524 13.1911L9.23629 9.47161C8.96197 9.16125 8.488 9.13204 8.17764 9.40637C7.86729 9.68069 7.83808 10.1547 8.1124 10.465L11.5233 14.324C12.0527 14.9229 12.9845 14.9258 13.5176 14.3301L19.8231 7.28447C20.6192 8.67398 21.0742 10.2838 21.0742 12C21.0742 17.2467 16.8209 21.5 11.5742 21.5C6.32751 21.5 2.07422 17.2467 2.07422 12ZM19.8231 7.28447L21.7332 5.15019C22.0094 4.84153 21.9832 4.36739 21.6745 4.09115C21.3659 3.81492 20.8917 3.84121 20.6155 4.14986L18.9494 6.01148C19.2736 6.41029 19.5662 6.8359 19.8231 7.28447Z" fill="white"/>
</svg>
