<svg width="22" height="21" viewBox="0 0 22 21" fill="none" xmlns="http://www.w3.org/2000/svg">
<path fill-rule="evenodd" clip-rule="evenodd" d="M14.1256 4.06981C14.5765 3.54645 15.0335 3.12066 15.4214 2.83288C15.6158 2.68865 15.7803 2.58846 15.9076 2.52736C15.9832 2.49108 16.0297 2.47629 16.0509 2.47038C16.0719 2.47635 16.1177 2.49123 16.192 2.5275C16.3186 2.58932 16.4823 2.69087 16.6761 2.83743C17.0628 3.12981 17.5182 3.56244 17.9687 4.09398C18.8803 5.16969 19.6851 6.547 19.9091 7.83619C20.1409 9.17001 19.7602 10.4994 18.9736 11.4511C18.7098 11.7704 18.7547 12.2431 19.074 12.507C19.3933 12.7709 19.866 12.726 20.1299 12.4067C21.1943 11.1187 21.6941 9.34683 21.387 7.57936C21.0998 5.92669 20.1167 4.30851 19.113 3.1242C18.6059 2.52572 18.0718 2.01221 17.5808 1.64095C17.3358 1.45568 17.0886 1.29604 16.8502 1.17962C16.6253 1.06981 16.3451 0.966797 16.0514 0.966797C15.761 0.966797 15.4826 1.0675 15.2585 1.17508C15.0207 1.28921 14.7734 1.4459 14.5277 1.6282C14.0353 1.99351 13.4985 2.49948 12.9891 3.09082C12.7188 3.40465 12.7541 3.87822 13.0679 4.14856C13.3817 4.4189 13.8553 4.38364 14.1256 4.06981ZM1.88276 9.68021C2.03424 8.66307 2.67271 7.55958 3.42086 6.68566C3.78879 6.25587 4.1612 5.90777 4.47442 5.67432C4.63151 5.55724 4.7611 5.47844 4.85742 5.43197C4.8833 5.41948 4.90378 5.41078 4.91919 5.40477L4.92766 5.40822C4.98475 5.43191 5.06774 5.47529 5.17521 5.54589C5.3901 5.68703 5.65579 5.90578 5.94254 6.19275C6.23532 6.48575 6.71019 6.48593 7.0032 6.19315C7.2962 5.90037 7.29638 5.4255 7.0036 5.13249C6.66567 4.7943 6.32106 4.50388 5.99871 4.29215C5.71264 4.10425 5.32122 3.89429 4.92005 3.89429C4.65034 3.89429 4.3984 3.98796 4.20554 4.08102C3.99876 4.1808 3.78636 4.31634 3.57802 4.47163C3.16038 4.78291 2.70817 5.21162 2.28137 5.71017C1.44007 6.6929 0.608682 8.05214 0.399122 9.45926C0.0988804 11.4753 0.747069 13.24 2.11533 14.2657C2.44676 14.5141 2.91684 14.4469 3.16529 14.1154C3.41374 13.784 3.34647 13.3139 3.01504 13.0655C2.16605 12.429 1.64816 11.2554 1.88276 9.68021ZM6.41072 12.8757C6.64058 11.3323 7.59884 9.65846 8.69227 8.34493C9.23281 7.69558 9.78406 7.16149 10.2556 6.79727C10.492 6.61473 10.6953 6.48501 10.8564 6.40421C10.9891 6.33765 11.0588 6.32175 11.0759 6.31796C11.0926 6.32174 11.1604 6.33749 11.2894 6.40295C11.4477 6.4833 11.6478 6.61264 11.8809 6.79525C12.3461 7.15962 12.8901 7.69438 13.4265 8.34516C14.5101 9.65977 15.4759 11.3411 15.7457 12.8937C16.2822 15.981 14.134 18.9373 11.0768 18.9373C9.48346 18.9373 8.20469 18.3059 7.38198 17.2732C6.55571 16.2359 6.13546 14.724 6.41072 12.8757ZM11.0762 4.81677C10.7545 4.81677 10.4417 4.93413 10.1839 5.06338C9.91136 5.20008 9.62529 5.38882 9.33876 5.61012C8.7646 6.05356 8.13598 6.66862 7.53943 7.38526C6.35868 8.80369 5.21387 10.7291 4.92709 12.6548C4.60099 14.8444 5.08205 16.7934 6.20874 18.2078C7.33898 19.6266 9.06481 20.4373 11.0768 20.4373C15.23 20.4373 17.8899 16.4715 17.2235 12.6368C16.8919 10.7284 15.7539 8.81044 14.584 7.39108C13.9936 6.67487 13.3734 6.05895 12.8059 5.6144C12.5227 5.39255 12.2392 5.20286 11.9681 5.0653C11.7115 4.93508 11.3991 4.81677 11.0762 4.81677ZM13.4143 13.2294C13.8283 13.2156 14.1751 13.54 14.1889 13.954C14.2133 14.6865 14.0442 15.4669 13.5498 16.1293C13.0495 16.7994 12.2722 17.2734 11.2232 17.4833C10.817 17.5645 10.4219 17.3011 10.3406 16.895C10.2594 16.4888 10.5228 16.0937 10.9289 16.0124C11.6825 15.8616 12.107 15.5545 12.3478 15.2319C12.5944 14.9016 12.7055 14.478 12.6897 14.004C12.6759 13.5901 13.0003 13.2432 13.4143 13.2294Z" fill="#29B677"/>
</svg>
