<svg width="28" height="27" viewBox="0 0 28 27" fill="none" xmlns="http://www.w3.org/2000/svg">
<path d="M16.25 10.4625V13.7812H19.2088C19.4225 13.7812 19.58 13.9725 19.535 14.1862L19.1075 16.3238C19.0738 16.4813 18.9387 16.5937 18.7812 16.5937H16.25V24.75H12.875V16.5937H10.9625C10.7712 16.5937 10.625 16.4475 10.625 16.2563V14.1187C10.625 13.9275 10.7712 13.7812 10.9625 13.7812H12.875V10.125C12.875 8.2575 14.3825 6.75 16.25 6.75H19.2875C19.4788 6.75 19.625 6.89624 19.625 7.08749V9.78751C19.625 9.97876 19.4788 10.125 19.2875 10.125H16.5875C16.3962 10.125 16.25 10.2712 16.25 10.4625Z" stroke="white" stroke-opacity="0.7" stroke-miterlimit="10" stroke-linecap="round"/>
<path d="M17.375 24.75H10.625C5 24.75 2.75 22.5 2.75 16.875V10.125C2.75 4.5 5 2.25 10.625 2.25H17.375C23 2.25 25.25 4.5 25.25 10.125V16.875C25.25 22.5 23 24.75 17.375 24.75Z" stroke="white" stroke-width="1.5" stroke-linecap="round" stroke-linejoin="round"/>
</svg>
