<svg width="24" height="24" viewBox="0 0 24 24" fill="none" xmlns="http://www.w3.org/2000/svg">
<path d="M2.75 4.5C2.75 4.08579 3.08579 3.75 3.5 3.75H5.5C5.91421 3.75 6.25 4.08579 6.25 4.5C6.25 4.91421 5.91421 5.25 5.5 5.25H3.5C3.08579 5.25 2.75 4.91421 2.75 4.5Z" fill="#1A1814"/>
<path d="M2.75 4.5C2.75 4.08579 3.08579 3.75 3.5 3.75H5.5C5.91421 3.75 6.25 4.08579 6.25 4.5C6.25 4.91421 5.91421 5.25 5.5 5.25H3.5C3.08579 5.25 2.75 4.91421 2.75 4.5Z" fill="black" fill-opacity="0.2"/>
<path fill-rule="evenodd" clip-rule="evenodd" d="M8.99977 4.75C8.58556 4.75 8.24977 5.08579 8.24977 5.5C8.24977 5.91421 8.58556 6.25 8.99977 6.25H13.4998C13.8938 6.25 14.2175 6.55436 14.2475 6.94028L14.2473 6.94541L14.2471 6.94948C14.2464 6.95976 14.2447 6.97536 14.241 6.99933L13.4929 11.8624L13.4895 11.8837L13.4542 12.114C13.3979 12.4799 13.0831 12.75 12.7129 12.75H3.21035L3.72738 10.6819C3.82784 10.2801 3.58352 9.87285 3.18167 9.77239C2.77982 9.67193 2.37262 9.91625 2.27216 10.3181L1.36173 13.9598C1.29258 14.2364 1.23179 14.5846 1.27776 14.9598C1.47607 16.5784 2.70431 17.878 4.28726 18.1824C4.49208 19.357 5.51676 20.25 6.75 20.25C7.95948 20.25 8.96836 19.3911 9.19999 18.25H15.3C15.5316 19.3911 16.5405 20.25 17.75 20.25C19.0317 20.25 20.0881 19.2855 20.233 18.0427C21.6986 17.5329 22.7504 16.1393 22.7504 14.5V13.1372C22.7504 12.3711 22.1294 11.75 21.3632 11.75C21.1488 11.75 20.956 11.6195 20.8764 11.4204L19.574 8.16437C19.2323 7.31014 18.4049 6.75 17.4849 6.75H16.2711C16.0921 6.75 15.9145 6.77148 15.742 6.81249C15.6463 5.65721 14.6793 4.75 13.4998 4.75H8.99977ZM6.75 15.25C5.74792 15.25 4.88355 15.8396 4.48483 16.6908C3.578 16.4784 2.88179 15.7174 2.76662 14.7774C2.75293 14.6657 2.76712 14.5229 2.81695 14.3236L2.83535 14.25H12.7129C13.8234 14.25 14.7679 13.4398 14.9367 12.3421L14.9751 12.0928L15.4803 8.8739C15.537 8.54332 15.8744 8.25 16.2711 8.25H17.4849C17.7916 8.25 18.0673 8.43671 18.1812 8.72146L19.3927 11.75H19C18.5858 11.75 18.25 12.0858 18.25 12.5C18.25 12.9142 18.5858 13.25 19 13.25H21.2C21.2169 13.25 21.2338 13.2494 21.2504 13.2483V14.5C21.2504 15.4069 20.7138 16.1886 19.9408 16.5447C19.5152 15.7729 18.6937 15.25 17.75 15.25C16.7248 15.25 15.8438 15.867 15.458 16.75H9.04198C8.6562 15.867 7.77516 15.25 6.75 15.25ZM16.75 17.75C16.75 17.1977 17.1977 16.75 17.75 16.75C18.3023 16.75 18.75 17.1977 18.75 17.75C18.75 18.3023 18.3023 18.75 17.75 18.75C17.1977 18.75 16.75 18.3023 16.75 17.75ZM6.75 16.75C6.19772 16.75 5.75 17.1977 5.75 17.75C5.75 18.3023 6.19772 18.75 6.75 18.75C7.30228 18.75 7.75 18.3023 7.75 17.75C7.75 17.1977 7.30228 16.75 6.75 16.75Z" fill="#1A1814"/>
<path fill-rule="evenodd" clip-rule="evenodd" d="M8.99977 4.75C8.58556 4.75 8.24977 5.08579 8.24977 5.5C8.24977 5.91421 8.58556 6.25 8.99977 6.25H13.4998C13.8938 6.25 14.2175 6.55436 14.2475 6.94028L14.2473 6.94541L14.2471 6.94948C14.2464 6.95976 14.2447 6.97536 14.241 6.99933L13.4929 11.8624L13.4895 11.8837L13.4542 12.114C13.3979 12.4799 13.0831 12.75 12.7129 12.75H3.21035L3.72738 10.6819C3.82784 10.2801 3.58352 9.87285 3.18167 9.77239C2.77982 9.67193 2.37262 9.91625 2.27216 10.3181L1.36173 13.9598C1.29258 14.2364 1.23179 14.5846 1.27776 14.9598C1.47607 16.5784 2.70431 17.878 4.28726 18.1824C4.49208 19.357 5.51676 20.25 6.75 20.25C7.95948 20.25 8.96836 19.3911 9.19999 18.25H15.3C15.5316 19.3911 16.5405 20.25 17.75 20.25C19.0317 20.25 20.0881 19.2855 20.233 18.0427C21.6986 17.5329 22.7504 16.1393 22.7504 14.5V13.1372C22.7504 12.3711 22.1294 11.75 21.3632 11.75C21.1488 11.75 20.956 11.6195 20.8764 11.4204L19.574 8.16437C19.2323 7.31014 18.4049 6.75 17.4849 6.75H16.2711C16.0921 6.75 15.9145 6.77148 15.742 6.81249C15.6463 5.65721 14.6793 4.75 13.4998 4.75H8.99977ZM6.75 15.25C5.74792 15.25 4.88355 15.8396 4.48483 16.6908C3.578 16.4784 2.88179 15.7174 2.76662 14.7774C2.75293 14.6657 2.76712 14.5229 2.81695 14.3236L2.83535 14.25H12.7129C13.8234 14.25 14.7679 13.4398 14.9367 12.3421L14.9751 12.0928L15.4803 8.8739C15.537 8.54332 15.8744 8.25 16.2711 8.25H17.4849C17.7916 8.25 18.0673 8.43671 18.1812 8.72146L19.3927 11.75H19C18.5858 11.75 18.25 12.0858 18.25 12.5C18.25 12.9142 18.5858 13.25 19 13.25H21.2C21.2169 13.25 21.2338 13.2494 21.2504 13.2483V14.5C21.2504 15.4069 20.7138 16.1886 19.9408 16.5447C19.5152 15.7729 18.6937 15.25 17.75 15.25C16.7248 15.25 15.8438 15.867 15.458 16.75H9.04198C8.6562 15.867 7.77516 15.25 6.75 15.25ZM16.75 17.75C16.75 17.1977 17.1977 16.75 17.75 16.75C18.3023 16.75 18.75 17.1977 18.75 17.75C18.75 18.3023 18.3023 18.75 17.75 18.75C17.1977 18.75 16.75 18.3023 16.75 17.75ZM6.75 16.75C6.19772 16.75 5.75 17.1977 5.75 17.75C5.75 18.3023 6.19772 18.75 6.75 18.75C7.30228 18.75 7.75 18.3023 7.75 17.75C7.75 17.1977 7.30228 16.75 6.75 16.75Z" fill="black" fill-opacity="0.2"/>
<path d="M5.75 9.75C5.33579 9.75 5 10.0858 5 10.5C5 10.9142 5.33579 11.25 5.75 11.25H8.25C8.66421 11.25 9 10.9142 9 10.5C9 10.0858 8.66421 9.75 8.25 9.75H5.75Z" fill="#1A1814"/>
<path d="M5.75 9.75C5.33579 9.75 5 10.0858 5 10.5C5 10.9142 5.33579 11.25 5.75 11.25H8.25C8.66421 11.25 9 10.9142 9 10.5C9 10.0858 8.66421 9.75 8.25 9.75H5.75Z" fill="black" fill-opacity="0.2"/>
<path d="M2 6.75C1.58579 6.75 1.25 7.08579 1.25 7.5C1.25 7.91421 1.58579 8.25 2 8.25H6.5C6.91421 8.25 7.25 7.91421 7.25 7.5C7.25 7.08579 6.91421 6.75 6.5 6.75H2Z" fill="#1A1814"/>
<path d="M2 6.75C1.58579 6.75 1.25 7.08579 1.25 7.5C1.25 7.91421 1.58579 8.25 2 8.25H6.5C6.91421 8.25 7.25 7.91421 7.25 7.5C7.25 7.08579 6.91421 6.75 6.5 6.75H2Z" fill="black" fill-opacity="0.2"/>
</svg>
