<svg width="20" height="18" viewBox="0 0 20 18" fill="none" xmlns="http://www.w3.org/2000/svg">
<path fill-rule="evenodd" clip-rule="evenodd" d="M1 3.25H9.32501C9.67247 1.53832 11.1858 0.25 13 0.25C14.8142 0.25 16.3275 1.53832 16.675 3.25H19C19.4142 3.25 19.75 3.58579 19.75 4C19.75 4.41421 19.4142 4.75 19 4.75H16.675C16.3275 6.46168 14.8142 7.75 13 7.75C11.1858 7.75 9.67247 6.46168 9.32501 4.75H1C0.585786 4.75 0.25 4.41421 0.25 4C0.25 3.58579 0.585786 3.25 1 3.25ZM13 1.75C11.7574 1.75 10.75 2.75736 10.75 4C10.75 5.24264 11.7574 6.25 13 6.25C14.2426 6.25 15.25 5.24264 15.25 4C15.25 2.75736 14.2426 1.75 13 1.75Z" fill="#2F0D0C"/>
<path fill-rule="evenodd" clip-rule="evenodd" d="M1 13.25C0.585786 13.25 0.25 13.5858 0.25 14C0.25 14.4142 0.585786 14.75 1 14.75H3.32501C3.67247 16.4617 5.18578 17.75 7 17.75C8.81422 17.75 10.3275 16.4617 10.675 14.75H19C19.4142 14.75 19.75 14.4142 19.75 14C19.75 13.5858 19.4142 13.25 19 13.25H10.675C10.3275 11.5383 8.81422 10.25 7 10.25C5.18578 10.25 3.67247 11.5383 3.32501 13.25H1ZM9.25 14C9.25 12.7574 8.24264 11.75 7 11.75C5.75736 11.75 4.75 12.7574 4.75 14C4.75 15.2426 5.75736 16.25 7 16.25C8.24264 16.25 9.25 15.2426 9.25 14Z" fill="#2F0D0C"/>
</svg>
