<svg width="25" height="24" viewBox="0 0 25 24" fill="none" xmlns="http://www.w3.org/2000/svg">
<path fill-rule="evenodd" clip-rule="evenodd" d="M2.53559 7.75844C1.99147 5.99005 3.31377 4.19971 5.16398 4.19971H19.8945C21.6836 4.19971 22.9963 5.88103 22.5624 7.61668L21.5545 11.6484C21.3336 12.532 20.2721 12.8903 19.5609 12.3213L18.1013 11.1537L17.4167 14.5769C17.1833 15.744 15.6052 15.9553 15.0729 14.8908L13.7048 12.1545L12.5189 18.7708C12.2941 20.0251 10.5566 20.1783 10.1157 18.9828L7.11091 10.8347L6.08854 12.3682C5.50405 13.245 4.16363 13.0496 3.85375 12.0425L2.53559 7.75844ZM5.16398 5.69971C4.32298 5.69971 3.72193 6.5135 3.96926 7.31731L5.13256 11.098L6.13539 9.59379C6.7023 8.74343 7.99464 8.89578 8.34825 9.85466L11.2048 17.6006L12.3612 11.1485C12.5734 9.96454 14.1717 9.73419 14.7096 10.81L16.0887 13.5683L16.711 10.4567C16.8947 9.53816 17.9862 9.14059 18.7176 9.72576L20.1937 10.9067L21.1072 7.25288C21.3044 6.46394 20.7077 5.69971 19.8945 5.69971H5.16398Z" fill="#2F0D0C"/>
</svg>
