<svg width="10" height="10" viewBox="0 0 10 10" fill="none" xmlns="http://www.w3.org/2000/svg">
<path fill-rule="evenodd" clip-rule="evenodd" d="M6.17944 0.961681C5.33271 0.679439 4.41729 0.67944 3.57056 0.961681C1.88615 1.52315 0.75 3.09948 0.75 4.875V5.45725L1.80786 5.69767C2.78664 5.92012 3.41663 6.87391 3.23708 7.86146L3.17705 8.19162C3.0386 8.95309 2.3754 9.50658 1.60144 9.50658C0.71699 9.50658 0 8.78959 0 7.90514V4.875C0 2.77665 1.34272 0.913725 3.33339 0.250169C4.33407 -0.0833896 5.41593 -0.0833897 6.41661 0.250169C8.40728 0.913725 9.75 2.77665 9.75 4.875V7.90514C9.75 8.78959 9.03301 9.50658 8.14856 9.50658C7.3746 9.50658 6.7114 8.95309 6.57295 8.19162L6.51292 7.86146C6.33337 6.87391 6.96336 5.92012 7.94214 5.69767L9 5.45725V4.875C9 3.09947 7.86385 1.52315 6.17944 0.961681ZM9 6.22637L8.10835 6.42902C7.52109 6.56249 7.14309 7.13477 7.25082 7.72729L7.31085 8.05745C7.38446 8.46231 7.73707 8.75658 8.14856 8.75658C8.6188 8.75658 9 8.37538 9 7.90514V6.22637ZM0.75 6.22637V7.90514C0.75 8.37538 1.1312 8.75658 1.60144 8.75658C2.01293 8.75658 2.36554 8.4623 2.43915 8.05745L2.49918 7.72729C2.60691 7.13477 2.22891 6.56249 1.64165 6.42902L0.75 6.22637Z" fill="#CC312D"/>
</svg>
