<svg width="24" height="24" viewBox="0 0 24 24" fill="none" xmlns="http://www.w3.org/2000/svg">
<path fill-rule="evenodd" clip-rule="evenodd" d="M14.6089 4.66018C12.9154 4.0957 11.0846 4.0957 9.39112 4.66018C6.0223 5.78312 3.75 8.93577 3.75 12.4868V13.6513L5.86573 14.1322C7.82328 14.5771 9.08327 16.4846 8.72416 18.4597L8.6041 19.12C8.3272 20.643 7.00079 21.75 5.45288 21.75C3.68398 21.75 2.25 20.316 2.25 18.5471V12.4868C2.25 8.29012 4.93544 4.56427 8.91678 3.23715C10.9181 2.57004 13.0819 2.57004 15.0832 3.23715C19.0646 4.56427 21.75 8.29012 21.75 12.4868V18.5471C21.75 20.316 20.316 21.75 18.5471 21.75C16.9992 21.75 15.6728 20.643 15.3959 19.1201L15.2758 18.4597C14.9167 16.4846 16.1767 14.5771 18.1343 14.1322L20.25 13.6513V12.4868C20.25 8.93577 17.9777 5.78312 14.6089 4.66018ZM20.25 15.1896L18.4667 15.5949C17.2922 15.8618 16.5362 17.0063 16.7516 18.1914L16.8717 18.8517C17.0189 19.6614 17.7241 20.25 18.5471 20.25C19.4876 20.25 20.25 19.4876 20.25 18.5471V15.1896ZM3.75 15.1896V18.5471C3.75 19.4876 4.51241 20.25 5.45288 20.25C6.27586 20.25 6.98108 19.6614 7.1283 18.8517L7.24836 18.1914C7.46382 17.0063 6.70783 15.8618 5.5333 15.5949L3.75 15.1896Z" fill="#EBEBEB"/>
</svg>
