<svg width="20" height="21" viewBox="0 0 20 21" fill="none" xmlns="http://www.w3.org/2000/svg">
<path d="M0.25 10C0.25 4.61523 4.61521 0.250008 9.99999 0.25C15.3848 0.249992 19.75 4.61522 19.75 10V16.5001C19.75 18.8473 17.8472 20.7501 15.5 20.7501H13.25V16.5C13.25 14.7051 11.7949 13.25 10 13.25C8.20507 13.25 6.75 14.7051 6.75 16.5V20.7501H4.5C2.15279 20.7501 0.25 18.8473 0.25 16.5001V10Z" fill="#CC312D"/>
<path d="M8.25 20.7501H11.75V16.5C11.75 15.5335 10.9665 14.75 10 14.75C9.0335 14.75 8.25 15.5335 8.25 16.5V20.7501Z" fill="#CC312D"/>
</svg>
