<svg width="24" height="25" viewBox="0 0 24 25" fill="none" xmlns="http://www.w3.org/2000/svg">
<path d="M2.25 12C2.25 6.61523 6.61521 2.25001 12 2.25C17.3848 2.24999 21.75 6.61522 21.75 12V18.5001C21.75 20.8473 19.8472 22.7501 17.5 22.7501H15.25V18.5C15.25 16.7051 13.7949 15.25 12 15.25C10.2051 15.25 8.75 16.7051 8.75 18.5V22.7501H6.5C4.15279 22.7501 2.25 20.8473 2.25 18.5001V12Z" fill="#CC312D"/>
<path d="M10.25 22.7501H13.75V18.5C13.75 17.5335 12.9665 16.75 12 16.75C11.0335 16.75 10.25 17.5335 10.25 18.5V22.7501Z" fill="#CC312D"/>
</svg>
