<svg width="28" height="27" viewBox="0 0 28 27" fill="none" xmlns="http://www.w3.org/2000/svg">
<path d="M10.625 24.75H17.375C23 24.75 25.25 22.5 25.25 16.875V10.125C25.25 4.5 23 2.25 17.375 2.25H10.625C5 2.25 2.75 4.5 2.75 10.125V16.875C2.75 22.5 5 24.75 10.625 24.75Z" stroke="white" stroke-width="1.5" stroke-linecap="round" stroke-linejoin="round"/>
<path d="M14 17.4375C16.1746 17.4375 17.9375 15.6746 17.9375 13.5C17.9375 11.3254 16.1746 9.5625 14 9.5625C11.8254 9.5625 10.0625 11.3254 10.0625 13.5C10.0625 15.6746 11.8254 17.4375 14 17.4375Z" stroke="white" stroke-opacity="0.7" stroke-linecap="round" stroke-linejoin="round"/>
<path d="M20.3406 7.875H20.3536" stroke="white" stroke-width="2" stroke-linecap="round" stroke-linejoin="round"/>
</svg>
