<svg width="24" height="24" viewBox="0 0 24 24" fill="none" xmlns="http://www.w3.org/2000/svg">
<path d="M2 6.5C2 4.01472 4.01472 2 6.5 2H17.5C19.9853 2 22 4.01472 22 6.5V17.5C22 19.9853 19.9853 22 17.5 22H6.5C4.01472 22 2 19.9853 2 17.5V6.5Z" stroke="#2F0D0C" stroke-width="1.5"/>
<path d="M18 6H18.01" stroke="#CC312D" stroke-width="1.5" stroke-linecap="round" stroke-linejoin="round"/>
<path d="M16 12C16 14.2091 14.2091 16 12 16C9.79086 16 8 14.2091 8 12C8 9.79086 9.79086 8 12 8C14.2091 8 16 9.79086 16 12Z" stroke="#CC312D" stroke-width="1.5"/>
</svg>
