<svg width="24" height="24" viewBox="0 0 24 24" fill="none" xmlns="http://www.w3.org/2000/svg">
<path d="M19.2 17.5C20.3 17.9 21 18.4 21 19C21 19.6 20.3 20.1 19.2 20.5C18.2 20.9 16.8 21.2 15.2 21.3C14.2 21.4 13.1 21.5 12 21.5C10.9 21.5 9.8 21.4 8.8 21.3C7.2 21.1 5.8 20.8 4.8 20.5C3.7 20.1 3 19.6 3 19C3 18.4 3.7 17.9 4.8 17.5" stroke="#CC312D" stroke-width="1.5" stroke-linecap="round" stroke-linejoin="round"/>
<path d="M15.2311 8.00006C15.2311 9.78436 13.7846 11.2308 12.0003 11.2308C10.216 11.2308 8.76953 9.78436 8.76953 8.00006C8.76953 6.21575 10.216 4.76929 12.0003 4.76929C13.7846 4.76929 15.2311 6.21575 15.2311 8.00006Z" stroke="#2F0D0C" stroke-width="1.5"/>
<path d="M18.2571 8.12857C18.2571 13.3716 15.1744 18.5 12.1286 18.5C9.08273 18.5 6 13.3716 6 8.12857C6 4.77126 8.48349 2 12.1286 2C15.7737 2 18.2571 4.77126 18.2571 8.12857Z" stroke="#2F0D0C" stroke-width="1.5"/>
</svg>
