<svg width="24" height="24" viewBox="0 0 24 24" fill="none" xmlns="http://www.w3.org/2000/svg">
<path fill-rule="evenodd" clip-rule="evenodd" d="M8.01953 8.00006C8.01953 5.80154 9.80178 4.01929 12.0003 4.01929C14.1988 4.01929 15.9811 5.80154 15.9811 8.00006C15.9811 10.1986 14.1988 11.9808 12.0003 11.9808C9.80178 11.9808 8.01953 10.1986 8.01953 8.00006ZM12.0003 5.51929C10.6302 5.51929 9.51953 6.62997 9.51953 8.00006C9.51953 9.37015 10.6302 10.4808 12.0003 10.4808C13.3704 10.4808 14.4811 9.37015 14.4811 8.00006C14.4811 6.62997 13.3704 5.51929 12.0003 5.51929Z" fill="#CC312D"/>
<path fill-rule="evenodd" clip-rule="evenodd" d="M12.1286 1.25C8.04623 1.25 5.25 4.38048 5.25 8.12857C5.25 10.8865 6.05784 13.6115 7.27735 15.6636C8.46604 17.6638 10.1936 19.25 12.1286 19.25C14.0635 19.25 15.7911 17.6638 16.9798 15.6636C18.1993 13.6115 19.0071 10.8865 19.0071 8.12857C19.0071 4.38048 16.2109 1.25 12.1286 1.25ZM6.75 8.12857C6.75 5.16205 8.92075 2.75 12.1286 2.75C15.3364 2.75 17.5071 5.16205 17.5071 8.12857C17.5071 10.6137 16.7736 13.0744 15.6903 14.8973C14.5762 16.772 13.2395 17.75 12.1286 17.75C11.0177 17.75 9.68097 16.772 8.56683 14.8973C7.48352 13.0744 6.75 10.6137 6.75 8.12857Z" fill="#CC312D"/>
<path d="M5.50485 17.2437C5.6464 17.633 5.44558 18.0633 5.05631 18.2048C4.54078 18.3923 4.17717 18.5837 3.95602 18.7607C3.8483 18.8468 3.79412 18.914 3.76904 18.9557C3.75721 18.9753 3.75286 18.9876 3.75134 18.9927C3.75 18.9972 3.75 19 3.75 19C3.75 19 3.75 19.0028 3.75134 19.0073C3.75286 19.0124 3.75721 19.0247 3.76904 19.0443C3.79412 19.086 3.8483 19.1532 3.95602 19.2393C4.17429 19.414 4.53135 19.6027 5.03629 19.7878C5.98688 20.0714 7.33334 20.3604 8.88388 20.5546C9.88009 20.6542 10.9441 20.75 12 20.75C13.0592 20.75 14.1265 20.6536 15.1254 20.5537C15.1346 20.5528 15.1439 20.552 15.1532 20.5515C16.6957 20.4551 18.0135 20.1668 18.9215 19.8036L18.9319 19.7995L18.9437 19.7952C19.4592 19.6077 19.8228 19.4163 20.044 19.2393C20.1517 19.1532 20.2059 19.086 20.231 19.0443C20.2428 19.0247 20.2471 19.0124 20.2487 19.0073C20.25 19.0028 20.25 19 20.25 19C20.25 19 20.25 18.9972 20.2487 18.9927C20.2471 18.9876 20.2428 18.9753 20.231 18.9557C20.2059 18.914 20.1517 18.8468 20.044 18.7607C19.8228 18.5837 19.4592 18.3923 18.9437 18.2048C18.5544 18.0633 18.3536 17.633 18.4952 17.2437C18.6367 16.8544 19.067 16.6536 19.4563 16.7952C20.0408 17.0077 20.5772 17.2663 20.981 17.5893C21.3821 17.9102 21.75 18.3782 21.75 19C21.75 19.6218 21.3821 20.0898 20.981 20.4107C20.5797 20.7317 20.0476 20.989 19.4674 21.2008C18.3796 21.634 16.907 21.9435 15.2608 22.0477C14.2631 22.1473 13.1356 22.25 12 22.25C10.8592 22.25 9.7265 22.1464 8.72537 22.0463L8.70697 22.0442C7.07271 21.8399 5.63093 21.5323 4.58449 21.2184C4.57076 21.2143 4.55716 21.2097 4.54369 21.2048C3.95922 20.9923 3.42283 20.7337 3.01898 20.4107C2.61791 20.0898 2.25 19.6218 2.25 19C2.25 18.3782 2.61791 17.9102 3.01898 17.5893C3.42283 17.2663 3.95922 17.0077 4.54369 16.7952C4.93297 16.6536 5.36329 16.8544 5.50485 17.2437Z" fill="#CC312D"/>
</svg>
