<svg width="24" height="25" viewBox="0 0 24 25" fill="none" xmlns="http://www.w3.org/2000/svg">
<path d="M20.75 6.5C20.75 6.08579 20.4142 5.75 20 5.75H14C13.5858 5.75 13.25 6.08579 13.25 6.5C13.25 6.91421 13.5858 7.25 14 7.25H20C20.4142 7.25 20.75 6.91421 20.75 6.5Z" fill="#CC312D"/>
<path d="M20.75 12.5C20.75 12.0858 20.4142 11.75 20 11.75H4C3.58579 11.75 3.25 12.0858 3.25 12.5C3.25 12.9142 3.58579 13.25 4 13.25H20C20.4142 13.25 20.75 12.9142 20.75 12.5Z" fill="#CC312D"/>
<path d="M20 17.75C20.4142 17.75 20.75 18.0858 20.75 18.5C20.75 18.9142 20.4142 19.25 20 19.25H10C9.58579 19.25 9.25 18.9142 9.25 18.5C9.25 18.0858 9.58579 17.75 10 17.75H20Z" fill="#CC312D"/>
</svg>
