<svg width="28" height="42" viewBox="0 0 28 42" fill="none" xmlns="http://www.w3.org/2000/svg">
<path d="M27.2386 -9.25121e-05C27.5335 2.48571 27.681 4.50805 27.681 6.06694C27.681 9.69031 27.1754 12.8713 26.1642 15.6099C25.153 18.3063 23.7416 20.413 21.9299 21.9297C20.1182 23.4043 18.0538 24.1417 15.7365 24.1417C14.8939 24.1417 14.1144 24.0363 13.3982 23.8257C13.9459 28.4602 14.2197 34.1481 14.2197 40.8892C14.2197 43.8385 14.1565 46.6192 14.0301 49.2314L8.59509 49.9898C7.9631 41.3948 6.95193 33.5161 5.56157 26.3536C4.17121 19.1911 2.31739 12.2814 0.000117413 5.62455L9.41666 -9.25121e-05C10.0065 3.03343 10.5964 5.32963 11.1862 6.88852C11.7761 8.40528 12.4923 9.45859 13.335 10.0484C14.1776 10.6383 15.3152 10.9332 16.7477 10.9332C18.0116 10.9332 19.1071 10.6594 20.034 10.1116C21.003 9.56392 21.5718 8.78447 21.7403 7.7733C21.6561 6.93065 21.0873 5.14003 20.034 2.40144L27.2386 -9.25121e-05Z" fill="#CC312D"/>
</svg>
