<svg width="24" height="25" viewBox="0 0 24 25" fill="none" xmlns="http://www.w3.org/2000/svg">
<path fill-rule="evenodd" clip-rule="evenodd" d="M6.5 2.25C3.87665 2.25 1.75 4.37665 1.75 7C1.75 9.62335 3.87665 11.75 6.5 11.75C9.12335 11.75 11.25 9.62335 11.25 7C11.25 4.37665 9.12335 2.25 6.5 2.25ZM6.5 13.25C3.87665 13.25 1.75 15.3766 1.75 18C1.75 20.6234 3.87665 22.75 6.5 22.75C9.12335 22.75 11.25 20.6234 11.25 18C11.25 15.3766 9.12335 13.25 6.5 13.25ZM17.5 2.25C14.8766 2.25 12.75 4.37665 12.75 7C12.75 9.62335 14.8766 11.75 17.5 11.75C20.1234 11.75 22.25 9.62335 22.25 7C22.25 4.37665 20.1234 2.25 17.5 2.25ZM17.5 13.25C14.8766 13.25 12.75 15.3766 12.75 18C12.75 20.6234 14.8766 22.75 17.5 22.75C20.1234 22.75 22.25 20.6234 22.25 18C22.25 15.3766 20.1234 13.25 17.5 13.25Z" fill="#CC312D"/>
</svg>
