<svg width="24" height="25" viewBox="0 0 24 25" fill="none" xmlns="http://www.w3.org/2000/svg">
<path fill-rule="evenodd" clip-rule="evenodd" d="M6.5 2.25C3.87665 2.25 1.75 4.37665 1.75 7C1.75 9.62335 3.87665 11.75 6.5 11.75C9.12335 11.75 11.25 9.62335 11.25 7C11.25 4.37665 9.12335 2.25 6.5 2.25ZM3.25 7C3.25 5.20507 4.70507 3.75 6.5 3.75C8.29493 3.75 9.75 5.20507 9.75 7C9.75 8.79493 8.29493 10.25 6.5 10.25C4.70507 10.25 3.25 8.79493 3.25 7Z" fill="#606060"/>
<path fill-rule="evenodd" clip-rule="evenodd" d="M6.5 13.25C3.87665 13.25 1.75 15.3766 1.75 18C1.75 20.6234 3.87665 22.75 6.5 22.75C9.12335 22.75 11.25 20.6234 11.25 18C11.25 15.3766 9.12335 13.25 6.5 13.25ZM3.25 18C3.25 16.2051 4.70507 14.75 6.5 14.75C8.29493 14.75 9.75 16.2051 9.75 18C9.75 19.7949 8.29493 21.25 6.5 21.25C4.70507 21.25 3.25 19.7949 3.25 18Z" fill="#606060"/>
<path fill-rule="evenodd" clip-rule="evenodd" d="M12.75 7C12.75 4.37665 14.8766 2.25 17.5 2.25C20.1234 2.25 22.25 4.37665 22.25 7C22.25 9.62335 20.1234 11.75 17.5 11.75C14.8766 11.75 12.75 9.62335 12.75 7ZM17.5 3.75C15.7051 3.75 14.25 5.20507 14.25 7C14.25 8.79493 15.7051 10.25 17.5 10.25C19.2949 10.25 20.75 8.79493 20.75 7C20.75 5.20507 19.2949 3.75 17.5 3.75Z" fill="#606060"/>
<path fill-rule="evenodd" clip-rule="evenodd" d="M17.5 13.25C14.8766 13.25 12.75 15.3766 12.75 18C12.75 20.6234 14.8766 22.75 17.5 22.75C20.1234 22.75 22.25 20.6234 22.25 18C22.25 15.3766 20.1234 13.25 17.5 13.25ZM14.25 18C14.25 16.2051 15.7051 14.75 17.5 14.75C19.2949 14.75 20.75 16.2051 20.75 18C20.75 19.7949 19.2949 21.25 17.5 21.25C15.7051 21.25 14.25 19.7949 14.25 18Z" fill="#606060"/>
</svg>
