<svg width="21" height="21" viewBox="0 0 21 21" fill="none" xmlns="http://www.w3.org/2000/svg">
<path fill-rule="evenodd" clip-rule="evenodd" d="M0.25 9.5C0.25 4.39137 4.39137 0.25 9.5 0.25C14.6086 0.25 18.75 4.39137 18.75 9.5C18.75 14.6086 14.6086 18.75 9.5 18.75C4.39137 18.75 0.25 14.6086 0.25 9.5ZM9.5 1.75C5.21979 1.75 1.75 5.21979 1.75 9.5C1.75 13.7802 5.21979 17.25 9.5 17.25C13.7802 17.25 17.25 13.7802 17.25 9.5C17.25 5.21979 13.7802 1.75 9.5 1.75Z" fill="#13193A"/>
<path d="M18.8264 20.9678C18.2657 20.8988 17.7351 20.5854 17.4135 20.0494L16.3212 18.2289C15.993 17.6818 16.0792 16.9815 16.5303 16.5304C16.8238 16.2369 17.2226 16.0979 17.6161 16.1269C17.8277 16.1424 18.0377 16.2065 18.229 16.3213L20.0496 17.4136C21.1213 18.0567 21.3034 19.5357 20.4196 20.4195C20.0373 20.8018 19.5435 20.9847 19.0542 20.9823C18.978 20.9819 18.902 20.9771 18.8264 20.9678Z" fill="#13193A"/>
</svg>
