<svg width="24" height="24" viewBox="0 0 24 24" fill="none" xmlns="http://www.w3.org/2000/svg">
<path fill-rule="evenodd" clip-rule="evenodd" d="M13.75 6C13.75 3.92893 15.4289 2.25 17.5 2.25C19.5711 2.25 21.25 3.92893 21.25 6C21.25 8.07107 19.5711 9.75 17.5 9.75C16.1796 9.75 15.0187 9.06762 14.3505 8.03628L10.1408 11.0979C10.2121 11.3868 10.25 11.689 10.25 12C10.25 12.311 10.2121 12.6132 10.1408 12.9021L14.3505 15.9637C15.0187 14.9324 16.1796 14.25 17.5 14.25C19.5711 14.25 21.25 15.9289 21.25 18C21.25 20.0711 19.5711 21.75 17.5 21.75C15.4289 21.75 13.75 20.0711 13.75 18C13.75 17.8009 13.7655 17.6055 13.7954 17.4148L9.48022 14.2765C8.79494 15.1722 7.71494 15.75 6.5 15.75C4.42893 15.75 2.75 14.0711 2.75 12C2.75 9.92893 4.42893 8.25 6.5 8.25C7.71495 8.25 8.79494 8.82777 9.48022 9.72355L13.7954 6.58523C13.7655 6.39454 13.75 6.19908 13.75 6ZM17.5 3.75C16.2574 3.75 15.25 4.75736 15.25 6C15.25 7.24264 16.2574 8.25 17.5 8.25C18.7426 8.25 19.75 7.24264 19.75 6C19.75 4.75736 18.7426 3.75 17.5 3.75ZM17.5 15.75C16.2574 15.75 15.25 16.7574 15.25 18C15.25 19.2426 16.2574 20.25 17.5 20.25C18.7426 20.25 19.75 19.2426 19.75 18C19.75 16.7574 18.7426 15.75 17.5 15.75ZM4.25 12C4.25 10.7574 5.25736 9.75 6.5 9.75C7.74264 9.75 8.75 10.7574 8.75 12C8.75 13.2426 7.74264 14.25 6.5 14.25C5.25736 14.25 4.25 13.2426 4.25 12Z" fill="#13193A"/>
</svg>
