<svg width="24" height="24" viewBox="0 0 24 24" fill="none" xmlns="http://www.w3.org/2000/svg">
<path d="M22 12C22 17.5228 17.5228 22 12 22C6.47715 22 2 17.5228 2 12C2 6.47715 6.47715 2 12 2C17.5228 2 22 6.47715 22 12Z" stroke="#2F0D0C" stroke-width="1.5"/>
<path d="M9.39298 2.44067L11.8168 3.84009C12.3706 4.1598 12.5603 4.86788 12.2406 5.42163C11.9274 5.96407 12.1024 6.65721 12.6356 6.98598L13.7982 7.70291C14.5639 8.1751 14.8152 9.17063 14.3654 9.9497C13.9009 10.7543 12.8673 11.0222 12.0704 10.5445L8.38163 8.3334C7.78312 7.97465 7.00675 8.17587 6.65785 8.78018L6.59182 8.89455C6.2834 9.42876 6.47298 10.1156 7.0072 10.4241C7.53422 10.7283 7.72126 11.406 7.41698 11.933C7.1127 12.46 6.4388 12.6406 5.91178 12.3363L2.34082 10.2746" stroke="#CC312D" stroke-width="1.5" stroke-linecap="round"/>
<path d="M20.5504 16.9839L17.6345 15.3004C17.0107 14.9403 16.213 15.154 15.8528 15.7778C15.5827 16.2457 14.9844 16.406 14.5166 16.1359L14.3851 16.06C13.4243 15.5053 12.1958 15.8345 11.6411 16.7953L11.5691 16.92C10.9746 17.9497 11.3274 19.2663 12.357 19.8608L15.0514 21.4164" stroke="#CC312D" stroke-width="1.5" stroke-linecap="round"/>
</svg>
