<svg width="28" height="28" viewBox="0 0 28 28" fill="none" xmlns="http://www.w3.org/2000/svg">
<path d="M5.83333 25.6665H22.1667" stroke="#2F0D0C" stroke-width="1.75" stroke-linecap="round" stroke-linejoin="round"/>
<path d="M15.75 18.6665H12.25" stroke="#2F0D0C" stroke-width="1.75" stroke-miterlimit="10" stroke-linecap="round"/>
<path d="M11.6667 25.6671C10.1111 23.5282 7 18.0838 7 14.5838C7 11.8946 9.15219 10.6045 10.3561 9.98975M16.3333 25.6671C17.8889 23.5282 21 18.0838 21 14.5838C21 11.8946 18.8478 10.6045 17.6439 9.98975" stroke="#2F0D0C" stroke-width="1.75" stroke-linecap="round"/>
<path d="M13.2409 2.7827C13.562 2.18376 14.438 2.18376 14.7591 2.7827L15.9571 5.01695C16.0857 5.25674 16.3246 5.42107 16.5986 5.45822L19.0926 5.79629C19.8046 5.89279 20.0865 6.75244 19.565 7.23653L17.7652 8.90713C17.5556 9.10171 17.4602 9.38655 17.5114 9.66486L17.9481 12.0382C18.0728 12.7161 17.3562 13.2443 16.7251 12.9396L14.3792 11.8071C14.1401 11.6917 13.8599 11.6917 13.6208 11.8071L11.2749 12.9396C10.6438 13.2443 9.92715 12.7161 10.0519 12.0382L10.4886 9.66486C10.5398 9.38655 10.4444 9.10171 10.2348 8.90713L8.43503 7.23653C7.91352 6.75243 8.19543 5.89279 8.90736 5.79629L11.4014 5.45822C11.6754 5.42107 11.9143 5.25674 12.0429 5.01695L13.2409 2.7827Z" stroke="#2F0D0C" stroke-width="1.75" stroke-miterlimit="10"/>
</svg>
