<svg width="25" height="25" viewBox="0 0 25 25" fill="none" xmlns="http://www.w3.org/2000/svg">
<path d="M8.5 7.75C8.08579 7.75 7.75 8.08579 7.75 8.5C7.75 8.91421 8.08579 9.25 8.5 9.25H16.5C16.9142 9.25 17.25 8.91421 17.25 8.5C17.25 8.08579 16.9142 7.75 16.5 7.75H8.5Z" fill="#CC312D"/>
<path d="M8.5 11.75C8.08579 11.75 7.75 12.0858 7.75 12.5C7.75 12.9142 8.08579 13.25 8.5 13.25H16.5C16.9142 13.25 17.25 12.9142 17.25 12.5C17.25 12.0858 16.9142 11.75 16.5 11.75H8.5Z" fill="#CC312D"/>
<path d="M7.75 16.5C7.75 16.0858 8.08579 15.75 8.5 15.75H16.5C16.9142 15.75 17.25 16.0858 17.25 16.5C17.25 16.9142 16.9142 17.25 16.5 17.25H8.5C8.08579 17.25 7.75 16.9142 7.75 16.5Z" fill="#CC312D"/>
<path fill-rule="evenodd" clip-rule="evenodd" d="M7 2.75C4.65279 2.75 2.75 4.65279 2.75 7V18C2.75 20.3472 4.65279 22.25 7 22.25H18C20.3472 22.25 22.25 20.3472 22.25 18V7C22.25 4.65279 20.3472 2.75 18 2.75H7ZM4.25 7C4.25 5.48122 5.48122 4.25 7 4.25H18C19.5188 4.25 20.75 5.48122 20.75 7V18C20.75 19.5188 19.5188 20.75 18 20.75H7C5.48122 20.75 4.25 19.5188 4.25 18V7Z" fill="#CC312D"/>
</svg>
