<svg width="28" height="28" viewBox="0 0 28 28" fill="none" xmlns="http://www.w3.org/2000/svg">
<path fill-rule="evenodd" clip-rule="evenodd" d="M1.45825 9.33333C1.45825 6.59492 3.67817 4.375 6.41659 4.375H15.7499C17.1997 4.375 18.3749 5.55025 18.3749 7V8.02437C18.6486 7.92764 18.9431 7.875 19.2499 7.875H20.9818C22.0552 7.875 23.0204 8.5285 23.419 9.5251L25.0631 13.6353C25.0808 13.6794 25.1235 13.7083 25.171 13.7083C25.9279 13.7083 26.5416 14.322 26.5416 15.0789V16.9167C26.5416 18.8289 25.3147 20.4547 23.6052 21.0497C23.4362 22.4997 22.2036 23.625 20.7083 23.625C19.2972 23.625 18.1202 22.623 17.8499 21.2917H10.7332C10.463 22.623 9.28598 23.625 7.87492 23.625C6.43611 23.625 5.24063 22.5832 5.00171 21.2127C2.98314 20.8243 1.45825 19.0486 1.45825 16.9167V9.33333ZM5.23223 19.4725C5.69741 18.4795 6.70584 17.7917 7.87492 17.7917C9.07094 17.7917 10.0988 18.5116 10.5489 19.5417H16.6249V7C16.6249 6.51675 16.2332 6.125 15.7499 6.125H6.41659C4.64467 6.125 3.20825 7.56142 3.20825 9.33333V16.9167C3.20825 18.1596 4.07213 19.2008 5.23223 19.4725ZM24.7916 16.9167C24.7916 17.9746 24.1657 18.8864 23.2641 19.3019C22.7676 18.4016 21.8091 17.7917 20.7083 17.7917C19.7542 17.7917 18.9071 18.2498 18.3749 18.9581V10.5C18.3749 10.0168 18.7667 9.625 19.2499 9.625H20.9818C21.3396 9.625 21.6613 9.84283 21.7942 10.175L23.2075 13.7083H22.1666C21.6833 13.7083 21.2916 14.1001 21.2916 14.5833C21.2916 15.0666 21.6833 15.4583 22.1666 15.4583H24.7916V16.9167ZM20.7083 19.5417C20.0639 19.5417 19.5416 20.064 19.5416 20.7083C19.5416 21.3527 20.0639 21.875 20.7083 21.875C21.3526 21.875 21.8749 21.3527 21.8749 20.7083C21.8749 20.064 21.3526 19.5417 20.7083 19.5417ZM6.70825 20.7083C6.70825 20.064 7.23059 19.5417 7.87492 19.5417C8.51925 19.5417 9.04159 20.064 9.04159 20.7083C9.04159 21.3527 8.51925 21.875 7.87492 21.875C7.23059 21.875 6.70825 21.3527 6.70825 20.7083Z" fill="#13193A"/>
</svg>
