<svg width="24" height="24" viewBox="0 0 24 24" fill="none" xmlns="http://www.w3.org/2000/svg">
<path d="M9.36065 7.68833L10.0525 7.39882L9.36065 7.68833ZM13.7237 5.07405L14.4155 4.78454L14.4155 4.78454L13.7237 5.07405ZM9.70362 9.53543C9.99934 9.82548 10.4742 9.82089 10.7642 9.52518C11.0543 9.22947 11.0497 8.75461 10.754 8.46457L9.70362 9.53543ZM9.36065 7.68833L10.0525 7.39882C9.7485 6.67229 9.68384 5.89804 9.81289 5.24701C9.9435 4.58813 10.2533 4.12884 10.6232 3.90719L10.2377 3.26384L9.8522 2.62049C9.01732 3.12074 8.52834 4.01287 8.34152 4.95534C8.15314 5.90566 8.25236 6.98271 8.66878 7.97784L9.36065 7.68833ZM10.2377 3.26384L10.6232 3.90719C10.9693 3.69978 11.3806 3.69178 11.8167 3.91821C12.2654 4.15121 12.727 4.63522 13.0318 5.36356L13.7237 5.07405L14.4155 4.78454C13.9999 3.79121 13.3209 3.00916 12.508 2.58699C11.6823 2.15825 10.7109 2.10598 9.8522 2.62049L10.2377 3.26384ZM13.7237 5.07405L13.0318 5.36356C13.1368 5.61452 13.2137 5.87235 13.2637 6.13011L14 5.98726L14.7363 5.84442C14.6672 5.48833 14.5609 5.13205 14.4155 4.78454L13.7237 5.07405ZM10.2288 9L10.754 8.46457C10.4855 8.20118 10.2386 7.84363 10.0525 7.39882L9.36065 7.68833L8.66878 7.97784C8.9257 8.59183 9.28085 9.12076 9.70362 9.53543L10.2288 9Z" fill="#2F0D0C"/>
<path d="M14.2814 11.757L15.0261 11.8463L14.2814 11.757ZM13.2347 20.4811L12.49 20.3918L13.2347 20.4811ZM11.6062 21.7607L11.6956 21.016L11.6062 21.7607ZM5.79014 21.0629L5.70079 21.8075H5.70079L5.79014 21.0629ZM4.51057 19.4344L3.76591 19.345L4.51057 19.4344ZM5.55732 10.7103L6.30198 10.7996L5.55732 10.7103ZM10.4428 6.87156L10.3534 7.61622L10.4428 6.87156ZM7.45309 8.55184C7.75814 8.27162 7.77826 7.79718 7.49804 7.49213C7.21783 7.18709 6.74338 7.16697 6.43834 7.44718L7.45309 8.55184ZM14.2814 11.757L13.5368 11.6677L12.49 20.3918L13.2347 20.4811L13.9794 20.5705L15.0261 11.8463L14.2814 11.757ZM11.6062 21.7607L11.6956 21.016L5.87948 20.3182L5.79014 21.0629L5.70079 21.8075L11.5169 22.5053L11.6062 21.7607ZM4.51057 19.4344L5.25523 19.5237L6.30198 10.7996L5.55732 10.7103L4.81266 10.6209L3.76591 19.345L4.51057 19.4344ZM5.79014 21.0629L5.87948 20.3182C5.48771 20.2712 5.20823 19.9155 5.25523 19.5237L4.51057 19.4344L3.76591 19.345C3.62022 20.5593 4.48649 21.6618 5.70079 21.8075L5.79014 21.0629ZM13.2347 20.4811L12.49 20.3918C12.443 20.7835 12.0873 21.063 11.6956 21.016L11.6062 21.7607L11.5169 22.5053C12.7312 22.651 13.8337 21.7848 13.9794 20.5705L13.2347 20.4811ZM10.4428 6.87156L10.3534 7.61622C12.3512 7.85593 13.7765 9.66982 13.5368 11.6677L14.2814 11.757L15.0261 11.8463C15.3645 9.02598 13.3525 6.4653 10.5321 6.12691L10.4428 6.87156ZM10.4428 6.87156L10.5321 6.12691C9.95376 6.05751 9.3848 6.08707 8.84315 6.20292L9 6.93633L9.15685 7.66975C9.53889 7.58804 9.94148 7.5668 10.3534 7.61622L10.4428 6.87156ZM6.94572 7.99951L6.43834 7.44718C5.56664 8.24793 4.96472 9.35359 4.81266 10.6209L5.55732 10.7103L6.30198 10.7996C6.40981 9.90089 6.83502 9.11961 7.45309 8.55184L6.94572 7.99951Z" fill="#2F0D0C"/>
<path d="M10.8086 6.72865C11.1914 6.48584 11.6203 6.30135 12.086 6.19043C14.3425 5.65301 16.6074 7.04658 17.1448 9.30306L19.091 17.4745C19.2701 18.2267 18.8056 18.9816 18.0535 19.1608L16.2767 19.5803" stroke="#CC312D" stroke-width="1.5" stroke-linecap="round" stroke-linejoin="round"/>
</svg>
