<svg width="24" height="25" viewBox="0 0 24 25" fill="none" xmlns="http://www.w3.org/2000/svg">
<path fill-rule="evenodd" clip-rule="evenodd" d="M12 2.75C9.37665 2.75 7.25 4.87665 7.25 7.5C7.25 10.1234 9.37665 12.25 12 12.25C14.6234 12.25 16.75 10.1234 16.75 7.5C16.75 4.87665 14.6234 2.75 12 2.75ZM8.75 7.5C8.75 5.70507 10.2051 4.25 12 4.25C13.7949 4.25 15.25 5.70507 15.25 7.5C15.25 9.29493 13.7949 10.75 12 10.75C10.2051 10.75 8.75 9.29493 8.75 7.5Z" fill="#606060"/>
<path fill-rule="evenodd" clip-rule="evenodd" d="M8.71585 13.75C7.38709 13.75 6.15754 14.4532 5.48374 15.5984L4.82197 16.7233C4.29965 17.611 4.0756 18.6478 4.2895 19.5798C4.51276 20.5525 5.2044 21.3451 6.33631 21.6375C9.49748 22.4542 14.5028 22.4542 17.664 21.6375C18.7959 21.3451 19.4876 20.5525 19.7108 19.5798C19.9247 18.6478 19.7007 17.611 19.1784 16.7233L18.5166 15.5984C17.8428 14.4532 16.6132 13.75 15.2845 13.75H8.71585ZM6.77659 16.3591C7.18086 15.6719 7.91859 15.25 8.71585 15.25H15.2845C16.0817 15.25 16.8195 15.6719 17.2237 16.3591L17.8855 17.4839C18.2575 18.1161 18.3594 18.7626 18.2488 19.2443C18.1476 19.6852 17.8644 20.0365 17.2888 20.1852C14.3737 20.9383 9.62658 20.9383 6.7115 20.1852C6.13593 20.0365 5.85269 19.6852 5.75149 19.2443C5.64094 18.7626 5.74287 18.1161 6.11481 17.4839L6.77659 16.3591Z" fill="#606060"/>
</svg>
