<svg width="24" height="24" viewBox="0 0 24 24" fill="none" xmlns="http://www.w3.org/2000/svg">
<path fill-rule="evenodd" clip-rule="evenodd" d="M12.002 2.25C9.3786 2.25 7.25195 4.37665 7.25195 7C7.25195 9.62335 9.3786 11.75 12.002 11.75C14.6253 11.75 16.752 9.62335 16.752 7C16.752 4.37665 14.6253 2.25 12.002 2.25ZM8.75195 7C8.75195 5.20507 10.207 3.75 12.002 3.75C13.7969 3.75 15.252 5.20507 15.252 7C15.252 8.79493 13.7969 10.25 12.002 10.25C10.207 10.25 8.75195 8.79493 8.75195 7Z" fill="#606060"/>
<path fill-rule="evenodd" clip-rule="evenodd" d="M8.71781 13.25C7.38904 13.25 6.15949 13.9532 5.48569 15.0984L4.82392 16.2233C4.30161 17.111 4.07755 18.1478 4.29146 19.0798C4.51471 20.0525 5.20635 20.8451 6.33827 21.1375C9.49943 21.9542 14.5048 21.9542 17.666 21.1375C18.7979 20.8451 19.4895 20.0525 19.7128 19.0798C19.9267 18.1478 19.7026 17.111 19.1803 16.2233L18.5185 15.0984C17.8447 13.9532 16.6152 13.25 15.2864 13.25H8.71781ZM6.77854 15.8591C7.18282 15.1719 7.92055 14.75 8.71781 14.75H15.2864C16.0837 14.75 16.8214 15.1719 17.2257 15.8591L17.8875 16.9839C18.2594 17.6161 18.3613 18.2626 18.2508 18.7443C18.1496 19.1852 17.8663 19.5365 17.2908 19.6852C14.3757 20.4383 9.62853 20.4383 6.71345 19.6852C6.13789 19.5365 5.85464 19.1852 5.75344 18.7443C5.6429 18.2626 5.74483 17.6161 6.11677 16.9839L6.77854 15.8591Z" fill="#606060"/>
</svg>
