<svg width="24" height="24" viewBox="0 0 24 24" fill="none" xmlns="http://www.w3.org/2000/svg">
<path d="M12.002 2.25C9.3786 2.25 7.25195 4.37665 7.25195 7C7.25195 9.62335 9.3786 11.75 12.002 11.75C14.6253 11.75 16.752 9.62335 16.752 7C16.752 4.37665 14.6253 2.25 12.002 2.25Z" fill="#1A1814"/>
<path d="M8.71781 13.25C7.38904 13.25 6.15949 13.9532 5.48569 15.0984L4.82392 16.2233C4.30161 17.111 4.07755 18.1478 4.29146 19.0798C4.51471 20.0525 5.20635 20.8451 6.33827 21.1375C9.49943 21.9542 14.5048 21.9542 17.666 21.1375C18.7979 20.8451 19.4895 20.0525 19.7128 19.0798C19.9267 18.1478 19.7026 17.111 19.1803 16.2233L18.5185 15.0984C17.8447 13.9532 16.6152 13.25 15.2864 13.25H8.71781Z" fill="#1A1814"/>
</svg>
