<svg width="24" height="24" viewBox="0 0 24 24" fill="none" xmlns="http://www.w3.org/2000/svg">
<path d="M10.2041 3.95023C11.0523 2.68326 12.9152 2.68326 13.7634 3.95023L14.717 5.37475C15.0867 5.92692 15.6917 6.27623 16.3547 6.32027L18.0652 6.4339C19.5866 6.53496 20.518 8.1483 19.8449 9.51634L19.088 11.0545C18.7947 11.6507 18.7947 12.3493 19.088 12.9455L19.8449 14.4837C20.518 15.8517 19.5866 17.465 18.0652 17.5661L16.3547 17.6797C15.6917 17.7238 15.0867 18.0731 14.717 18.6253L13.7634 20.0498C12.9152 21.3167 11.0523 21.3167 10.2041 20.0498L9.25046 18.6253C8.8808 18.0731 8.27578 17.7238 7.61276 17.6797L5.90227 17.5661C4.38094 17.465 3.44948 15.8517 4.12262 14.4837L4.87947 12.9455C5.17284 12.3493 5.17284 11.6507 4.87947 11.0545L4.12262 9.51634C3.44948 8.1483 4.38094 6.53496 5.90227 6.4339L7.61276 6.32027C8.27578 6.27623 8.8808 5.92692 9.25046 5.37475L10.2041 3.95023Z" stroke="#2F0D0C" stroke-width="1.5"/>
<path d="M9 12.5385L10.6372 14.3804C10.7487 14.5057 10.9443 14.5063 11.0565 14.3817L15 10" stroke="#CC312D" stroke-width="1.5" stroke-linecap="round" stroke-linejoin="round"/>
</svg>
