<svg width="28" height="27" viewBox="0 0 28 27" fill="none" xmlns="http://www.w3.org/2000/svg">
<path d="M8.3075 23.2088C9.9725 24.1875 11.9188 24.75 14 24.75C20.21 24.75 25.25 19.71 25.25 13.5C25.25 7.29 20.21 2.25 14 2.25C7.79 2.25 2.75 7.29 2.75 13.5C2.75 15.5475 3.30128 17.4713 4.25753 19.125L2.75 24.75L8.3075 23.2088Z" stroke="white" stroke-width="1.5" stroke-miterlimit="10" stroke-linecap="round" stroke-linejoin="round"/>
<path d="M19.625 17.0663C19.625 17.2688 19.58 17.4825 19.4787 17.685C19.3775 17.8875 19.2538 18.0788 19.0963 18.2588C18.815 18.5625 18.5113 18.7875 18.1738 18.9225C17.8363 19.0688 17.465 19.1363 17.0712 19.1363C16.4975 19.1363 15.8787 19.0013 15.2375 18.72C14.585 18.4388 13.9438 18.0675 13.3025 17.6063C12.65 17.1338 12.0425 16.605 11.4575 16.0313C10.8725 15.4463 10.355 14.8275 9.88253 14.1863C9.42128 13.545 9.04998 12.9038 8.77998 12.2625C8.50998 11.6213 8.375 11.0025 8.375 10.4175C8.375 10.035 8.44249 9.66379 8.57749 9.32629C8.71249 8.97754 8.92626 8.66254 9.23001 8.38129C9.59001 8.02129 9.98374 7.85254 10.4 7.85254C10.5575 7.85254 10.715 7.88628 10.8613 7.95378C11.0075 8.02128 11.1425 8.12253 11.2437 8.26878L12.5488 10.1138C12.65 10.26 12.7287 10.3838 12.7737 10.5075C12.83 10.6313 12.8525 10.7438 12.8525 10.8563C12.8525 10.9913 12.8075 11.1263 12.7287 11.2613C12.65 11.3963 12.5488 11.5313 12.4138 11.6663L11.9863 12.1163C11.9188 12.1838 11.8963 12.2513 11.8963 12.3413C11.8963 12.3863 11.9075 12.4313 11.9188 12.4763C11.9413 12.5213 11.9525 12.555 11.9638 12.5888C12.065 12.78 12.245 13.0163 12.4925 13.3088C12.7512 13.6013 13.0213 13.905 13.3138 14.1975C13.6175 14.5013 13.91 14.7713 14.2138 15.03C14.5063 15.2775 14.7538 15.4463 14.945 15.5475C14.9788 15.5588 15.0125 15.5813 15.0462 15.5925C15.0912 15.615 15.1362 15.615 15.1925 15.615C15.2937 15.615 15.3613 15.5813 15.4288 15.5138L15.8563 15.0863C16.0025 14.94 16.1375 14.8388 16.2613 14.7713C16.3963 14.6925 16.52 14.6475 16.6662 14.6475C16.7787 14.6475 16.8912 14.67 17.015 14.7263C17.1387 14.7825 17.2738 14.85 17.4088 14.9513L19.2763 16.2788C19.4225 16.38 19.5237 16.5038 19.5912 16.6388C19.5912 16.7738 19.625 16.9088 19.625 17.0663Z" stroke="white" stroke-opacity="0.7" stroke-miterlimit="10"/>
</svg>
