<svg width="49" height="48" viewBox="0 0 49 48" fill="none" xmlns="http://www.w3.org/2000/svg">
<rect x="0.5" width="48" height="48" rx="10.2857" fill="#EBB811" fill-opacity="0.25"/>
<path d="M23.2701 12.6798C23.5428 12.005 24.2032 11.5635 24.9319 11.5635H36.4244C37.4079 11.5563 38.2083 12.3496 38.2118 13.333C38.2118 13.5627 38.1688 13.7888 38.0862 14.0006L29.2855 35.8444C29.0128 36.5227 28.3524 36.9642 27.6237 36.9606H16.1312C15.1477 36.9642 14.3473 36.1746 14.3438 35.1911C14.3438 34.9614 14.3868 34.7353 14.4694 34.5236L23.2701 12.6798Z" fill="url(#paint0_linear_75_7083)"/>
<path d="M18.405 26.8034C22.6151 26.8034 26.0248 23.3901 26.0248 19.1836C26.0248 14.977 22.6151 11.5637 18.405 11.5637C14.1949 11.5637 10.7852 14.977 10.7852 19.1836C10.7852 23.3937 14.1949 26.8034 18.405 26.8034Z" fill="#0A33FF"/>
<path d="M26.0251 19.1836C26.0251 23.3937 22.6046 26.8071 18.3945 26.8035C18.1289 26.8035 17.8633 26.7891 17.5977 26.7604L23.0783 13.1646C24.9411 14.6074 26.0287 16.8291 26.0251 19.1836Z" fill="url(#paint1_linear_75_7083)"/>
<defs>
<linearGradient id="paint0_linear_75_7083" x1="31.0622" y1="11.5851" x2="21.4647" y2="37.018" gradientUnits="userSpaceOnUse">
<stop stop-color="#FFD60A"/>
<stop offset="1" stop-color="#F5BE09"/>
</linearGradient>
<linearGradient id="paint1_linear_75_7083" x1="25.6231" y1="14.2162" x2="20.1783" y2="27.7797" gradientUnits="userSpaceOnUse">
<stop stop-color="#051A80"/>
<stop offset="1" stop-color="#0A33FF"/>
</linearGradient>
</defs>
</svg>
